<svg id="svg" version="1.1" xmlns="http://www.w3.org/2000/svg" xmlns:xlink="http://www.w3.org/1999/xlink" width="400" height="400" viewBox="0, 0, 400,400"><g id="svgg"><path id="path0" d="M183.511 0.293 C 184.451 0.378,185.891 0.377,186.711 0.291 C 187.530 0.205,186.760 0.136,185.000 0.137 C 183.240 0.139,182.570 0.209,183.511 0.293 M213.700 0.291 C 214.525 0.378,215.875 0.378,216.700 0.291 C 217.525 0.205,216.850 0.134,215.200 0.134 C 213.550 0.134,212.875 0.205,213.700 0.291 M174.400 0.800 C 174.400 1.020,175.120 1.200,176.000 1.200 C 176.880 1.200,177.600 1.020,177.600 0.800 C 177.600 0.580,176.880 0.400,176.000 0.400 C 175.120 0.400,174.400 0.580,174.400 0.800 M221.200 0.753 C 221.200 1.233,222.845 1.513,224.359 1.291 C 226.400 0.992,225.763 0.400,223.400 0.400 C 222.190 0.400,221.200 0.559,221.200 0.753 M169.000 1.600 C 168.856 1.833,169.255 2.000,169.953 2.000 C 170.613 2.000,171.264 1.820,171.400 1.600 C 171.544 1.367,171.145 1.200,170.447 1.200 C 169.787 1.200,169.136 1.380,169.000 1.600 M227.200 1.600 C 227.200 1.820,228.100 2.000,229.200 2.000 C 230.300 2.000,231.200 1.820,231.200 1.600 C 231.200 1.380,230.300 1.200,229.200 1.200 C 228.100 1.200,227.200 1.380,227.200 1.600 M164.000 2.400 C 164.000 2.620,164.540 2.800,165.200 2.800 C 165.860 2.800,166.400 2.620,166.400 2.400 C 166.400 2.180,165.860 2.000,165.200 2.000 C 164.540 2.000,164.000 2.180,164.000 2.400 M232.400 2.400 C 232.400 2.620,233.210 2.800,234.200 2.800 C 235.190 2.800,236.000 2.620,236.000 2.400 C 236.000 2.180,235.190 2.000,234.200 2.000 C 233.210 2.000,232.400 2.180,232.400 2.400 M160.200 3.200 C 160.060 3.427,160.396 3.600,160.976 3.600 C 161.539 3.600,162.000 3.420,162.000 3.200 C 162.000 2.980,161.651 2.800,161.224 2.800 C 160.797 2.800,160.336 2.980,160.200 3.200 M236.800 3.200 C 236.800 3.420,237.520 3.600,238.400 3.600 C 239.280 3.600,240.000 3.420,240.000 3.200 C 240.000 2.980,239.280 2.800,238.400 2.800 C 237.520 2.800,236.800 2.980,236.800 3.200 M156.200 4.000 C 156.055 4.234,156.470 4.400,157.200 4.400 C 157.930 4.400,158.345 4.234,158.200 4.000 C 158.064 3.780,157.614 3.600,157.200 3.600 C 156.786 3.600,156.336 3.780,156.200 4.000 M241.200 4.000 C 241.200 4.220,241.841 4.400,242.624 4.400 C 243.471 4.400,243.947 4.238,243.800 4.000 C 243.664 3.780,243.023 3.600,242.376 3.600 C 241.729 3.600,241.200 3.780,241.200 4.000 M153.200 4.800 C 153.200 5.020,153.560 5.200,154.000 5.200 C 154.440 5.200,154.800 5.020,154.800 4.800 C 154.800 4.580,154.440 4.400,154.000 4.400 C 153.560 4.400,153.200 4.580,153.200 4.800 M244.800 4.800 C 244.800 5.020,245.250 5.200,245.800 5.200 C 246.350 5.200,246.800 5.020,246.800 4.800 C 246.800 4.580,246.350 4.400,245.800 4.400 C 245.250 4.400,244.800 4.580,244.800 4.800 M150.000 5.600 C 150.000 5.820,150.360 6.000,150.800 6.000 C 151.240 6.000,151.600 5.820,151.600 5.600 C 151.600 5.380,151.240 5.200,150.800 5.200 C 150.360 5.200,150.000 5.380,150.000 5.600 M248.000 5.600 C 248.000 5.820,248.450 6.000,249.000 6.000 C 249.550 6.000,250.000 5.820,250.000 5.600 C 250.000 5.380,249.550 5.200,249.000 5.200 C 248.450 5.200,248.000 5.380,248.000 5.600 M146.800 6.400 C 146.800 6.620,147.160 6.800,147.600 6.800 C 148.040 6.800,148.400 6.620,148.400 6.400 C 148.400 6.180,148.040 6.000,147.600 6.000 C 147.160 6.000,146.800 6.180,146.800 6.400 M251.200 6.400 C 251.200 6.620,251.650 6.800,252.200 6.800 C 252.750 6.800,253.200 6.620,253.200 6.400 C 253.200 6.180,252.750 6.000,252.200 6.000 C 251.650 6.000,251.200 6.180,251.200 6.400 M143.600 7.200 C 143.600 7.420,144.050 7.600,144.600 7.600 C 145.150 7.600,145.600 7.420,145.600 7.200 C 145.600 6.980,145.150 6.800,144.600 6.800 C 144.050 6.800,143.600 6.980,143.600 7.200 M254.000 7.200 C 254.000 7.420,254.551 7.600,255.224 7.600 C 255.937 7.600,256.344 7.433,256.200 7.200 C 256.064 6.980,255.513 6.800,254.976 6.800 C 254.439 6.800,254.000 6.980,254.000 7.200 M141.200 8.000 C 141.200 8.220,141.560 8.400,142.000 8.400 C 142.440 8.400,142.800 8.220,142.800 8.000 C 142.800 7.780,142.440 7.600,142.000 7.600 C 141.560 7.600,141.200 7.780,141.200 8.000 M256.800 8.000 C 256.800 8.220,257.250 8.400,257.800 8.400 C 258.350 8.400,258.800 8.220,258.800 8.000 C 258.800 7.780,258.350 7.600,257.800 7.600 C 257.250 7.600,256.800 7.780,256.800 8.000 M259.200 8.800 C 259.200 9.020,259.650 9.200,260.200 9.200 C 260.750 9.200,261.200 9.020,261.200 8.800 C 261.200 8.580,260.750 8.400,260.200 8.400 C 259.650 8.400,259.200 8.580,259.200 8.800 M261.600 9.600 C 261.600 9.820,262.050 10.000,262.600 10.000 C 263.150 10.000,263.600 9.820,263.600 9.600 C 263.600 9.380,263.150 9.200,262.600 9.200 C 262.050 9.200,261.600 9.380,261.600 9.600 M263.867 9.867 C 263.323 10.411,263.629 10.800,264.600 10.800 C 265.222 10.800,265.600 10.573,265.600 10.200 C 265.600 9.600,264.370 9.363,263.867 9.867 M266.000 11.000 C 266.000 11.373,266.378 11.600,267.000 11.600 C 267.622 11.600,268.000 11.373,268.000 11.000 C 268.000 10.627,267.622 10.400,267.000 10.400 C 266.378 10.400,266.000 10.627,266.000 11.000 M268.400 11.800 C 268.400 12.173,268.778 12.400,269.400 12.400 C 269.950 12.400,270.400 12.580,270.400 12.800 C 270.400 13.020,270.850 13.200,271.400 13.200 C 271.950 13.200,272.400 13.380,272.400 13.600 C 272.400 13.820,272.850 14.000,273.400 14.000 C 273.950 14.000,274.400 14.201,274.400 14.447 C 274.400 14.707,274.816 14.814,275.400 14.702 C 276.071 14.574,276.400 14.690,276.400 15.055 C 276.400 15.355,276.724 15.600,277.120 15.600 C 277.516 15.600,278.044 15.804,278.293 16.053 C 278.800 16.560,280.000 16.250,280.000 15.613 C 280.000 15.386,279.640 15.200,279.200 15.200 C 278.760 15.200,278.400 15.020,278.400 14.800 C 278.400 14.580,278.051 14.400,277.624 14.400 C 277.197 14.400,276.736 14.220,276.600 14.000 C 276.464 13.780,275.913 13.600,275.376 13.600 C 274.839 13.600,274.400 13.453,274.400 13.272 C 274.400 13.092,273.500 12.700,272.400 12.400 C 271.300 12.100,270.400 11.708,270.400 11.528 C 270.400 11.347,269.950 11.200,269.400 11.200 C 268.778 11.200,268.400 11.427,268.400 11.800 M280.100 16.500 C 280.192 16.775,280.522 17.000,280.833 17.000 C 281.145 17.000,281.544 17.225,281.720 17.500 C 281.896 17.775,282.391 18.000,282.820 18.000 C 283.249 18.000,283.600 18.180,283.600 18.400 C 283.600 18.620,283.891 18.800,284.246 18.800 C 284.602 18.800,286.797 19.790,289.124 21.000 C 291.451 22.210,293.591 23.200,293.878 23.200 C 294.165 23.200,294.401 23.335,294.401 23.500 C 294.402 23.665,295.392 24.250,296.600 24.800 C 297.808 25.350,298.798 25.935,298.799 26.100 C 298.799 26.265,299.070 26.400,299.400 26.400 C 299.730 26.400,300.000 26.580,300.000 26.800 C 300.000 27.020,300.360 27.200,300.800 27.200 C 301.240 27.200,301.600 27.359,301.600 27.553 C 301.600 27.748,301.915 28.018,302.300 28.154 C 302.685 28.289,303.225 28.505,303.500 28.634 C 303.789 28.768,304.000 28.596,304.000 28.223 C 304.000 27.829,303.536 27.487,302.800 27.340 C 302.140 27.208,301.600 26.943,301.600 26.750 C 301.600 26.558,301.322 26.400,300.983 26.400 C 300.644 26.400,299.980 26.040,299.508 25.600 C 299.036 25.160,298.144 24.576,297.525 24.303 C 296.906 24.029,296.400 23.669,296.400 23.502 C 296.400 23.336,296.040 23.200,295.600 23.200 C 295.160 23.200,294.800 23.020,294.800 22.800 C 294.800 22.580,294.440 22.400,294.000 22.400 C 293.560 22.400,293.200 22.220,293.200 22.000 C 293.200 21.780,292.840 21.600,292.400 21.600 C 291.960 21.600,291.600 21.420,291.600 21.200 C 291.600 20.980,291.240 20.800,290.800 20.800 C 290.360 20.800,290.000 20.620,290.000 20.400 C 290.000 20.180,289.640 20.000,289.200 20.000 C 288.760 20.000,288.400 19.820,288.400 19.600 C 288.400 19.380,288.040 19.200,287.600 19.200 C 287.160 19.200,286.800 19.020,286.800 18.800 C 286.800 18.580,286.440 18.400,286.000 18.400 C 285.560 18.400,285.200 18.220,285.200 18.000 C 285.200 17.780,284.840 17.600,284.400 17.600 C 283.960 17.600,283.600 17.420,283.600 17.200 C 283.600 16.980,283.240 16.800,282.800 16.800 C 282.360 16.800,282.000 16.620,282.000 16.400 C 282.000 16.180,281.535 16.000,280.967 16.000 C 280.318 16.000,279.995 16.186,280.100 16.500 M304.400 28.932 C 304.400 29.225,304.895 29.720,305.500 30.032 C 306.105 30.345,306.949 30.915,307.375 31.300 C 307.802 31.685,308.387 32.000,308.675 32.000 C 308.964 32.000,309.200 32.180,309.200 32.400 C 309.200 32.620,309.470 32.800,309.800 32.800 C 310.130 32.800,310.400 32.980,310.400 33.200 C 310.400 33.420,310.599 33.600,310.842 33.600 C 311.086 33.600,312.031 34.183,312.942 34.896 C 313.854 35.610,314.780 36.332,315.000 36.502 C 316.056 37.318,318.470 38.800,318.743 38.800 C 318.912 38.800,319.568 39.340,320.200 40.000 C 320.832 40.660,321.504 41.200,321.693 41.200 C 321.882 41.200,322.456 41.605,322.968 42.100 C 324.244 43.333,325.566 44.400,325.818 44.400 C 325.933 44.400,326.618 44.985,327.341 45.700 C 328.064 46.415,329.258 47.450,329.995 48.000 C 330.731 48.550,332.737 50.350,334.453 52.000 C 336.168 53.650,338.321 55.630,339.237 56.400 C 341.231 58.077,341.093 57.938,344.600 61.795 C 346.140 63.489,348.210 65.737,349.200 66.790 C 351.392 69.124,352.400 70.335,352.400 70.636 C 352.400 70.761,353.120 71.554,354.000 72.400 C 354.880 73.246,355.600 74.124,355.600 74.353 C 355.600 74.582,356.320 75.482,357.200 76.353 C 358.080 77.224,358.800 78.051,358.800 78.190 C 358.800 78.330,359.339 79.019,359.998 79.722 C 360.657 80.425,361.198 81.180,361.200 81.400 C 361.202 81.620,361.743 82.375,362.402 83.078 C 363.061 83.781,363.600 84.518,363.600 84.716 C 363.600 84.914,363.960 85.402,364.400 85.800 C 364.840 86.198,365.200 86.695,365.200 86.904 C 365.200 87.113,365.650 87.819,366.200 88.473 C 366.750 89.127,367.200 89.918,367.200 90.231 C 367.200 90.544,367.380 90.800,367.600 90.800 C 367.820 90.800,368.000 91.036,368.000 91.325 C 368.000 91.613,368.360 92.236,368.800 92.708 C 369.240 93.180,369.600 93.844,369.600 94.183 C 369.600 94.522,369.780 94.800,370.000 94.800 C 370.220 94.800,370.400 95.070,370.400 95.400 C 370.400 95.730,370.580 96.000,370.800 96.000 C 371.020 96.000,371.200 96.255,371.200 96.567 C 371.200 96.878,371.335 97.193,371.500 97.267 C 371.770 97.387,372.978 99.489,374.160 101.897 C 374.402 102.390,374.735 102.795,374.900 102.797 C 375.065 102.799,375.200 103.070,375.200 103.400 C 375.200 103.730,375.335 104.001,375.500 104.001 C 375.665 104.002,376.250 104.992,376.800 106.200 C 377.350 107.408,377.935 108.398,378.100 108.399 C 378.265 108.399,378.400 108.760,378.400 109.200 C 378.400 109.640,378.580 110.000,378.800 110.000 C 379.020 110.000,379.200 110.360,379.200 110.800 C 379.200 111.240,379.380 111.600,379.600 111.600 C 379.820 111.600,380.000 111.870,380.000 112.200 C 380.000 112.530,380.180 112.800,380.400 112.800 C 380.620 112.800,380.800 112.530,380.800 112.200 C 380.800 111.870,380.620 111.600,380.400 111.600 C 380.180 111.600,380.000 111.240,380.000 110.800 C 380.000 110.360,379.820 110.000,379.600 110.000 C 379.380 110.000,379.200 109.640,379.200 109.200 C 379.200 108.760,379.020 108.400,378.800 108.400 C 378.580 108.400,378.400 108.040,378.400 107.600 C 378.400 107.160,378.265 106.799,378.100 106.797 C 377.741 106.793,376.800 104.856,376.800 104.120 C 376.800 103.834,376.664 103.600,376.498 103.600 C 376.331 103.600,375.971 103.094,375.697 102.475 C 375.424 101.856,374.840 100.964,374.400 100.492 C 373.960 100.020,373.600 99.356,373.600 99.017 C 373.600 98.678,373.420 98.400,373.200 98.400 C 372.980 98.400,372.800 98.053,372.800 97.629 C 372.800 97.204,372.530 96.587,372.200 96.257 C 371.870 95.927,371.600 95.457,371.600 95.212 C 371.600 94.967,371.240 94.380,370.800 93.908 C 370.360 93.436,370.000 92.813,370.000 92.525 C 370.000 92.236,369.832 92.000,369.627 92.000 C 369.422 92.000,369.146 91.661,369.015 91.248 C 368.884 90.834,368.425 90.090,367.996 89.596 C 367.568 89.101,367.293 88.573,367.387 88.421 C 367.481 88.270,367.207 87.893,366.779 87.585 C 366.350 87.276,366.000 86.793,366.000 86.512 C 366.000 86.230,365.820 86.000,365.600 86.000 C 365.380 86.000,365.200 85.730,365.200 85.400 C 365.200 85.070,365.020 84.800,364.800 84.800 C 364.580 84.800,364.400 84.594,364.400 84.343 C 364.400 84.092,363.860 83.371,363.200 82.740 C 362.540 82.109,362.000 81.397,362.000 81.157 C 362.000 80.917,361.460 80.217,360.800 79.600 C 360.140 78.983,359.600 78.263,359.600 78.000 C 359.600 77.737,359.060 77.017,358.400 76.400 C 357.740 75.783,357.200 75.116,357.200 74.918 C 357.200 74.719,356.615 73.915,355.900 73.130 C 353.790 70.816,351.412 67.920,351.236 67.450 C 351.145 67.210,350.386 66.380,349.548 65.607 C 347.152 63.393,347.030 63.274,346.484 62.619 C 346.201 62.279,346.051 62.000,346.153 62.000 C 346.636 62.000,331.505 47.502,330.764 47.255 C 330.269 47.090,329.334 46.331,326.876 44.100 C 326.088 43.385,325.281 42.800,325.082 42.800 C 324.884 42.800,324.217 42.260,323.600 41.600 C 322.983 40.940,322.263 40.400,322.000 40.400 C 321.737 40.400,321.017 39.860,320.400 39.200 C 319.783 38.540,319.003 38.000,318.666 38.000 C 318.330 38.000,317.940 37.640,317.800 37.200 C 317.660 36.760,317.288 36.400,316.973 36.400 C 316.658 36.400,316.400 36.220,316.400 36.000 C 316.400 35.780,316.130 35.600,315.800 35.600 C 315.470 35.600,315.200 35.420,315.200 35.200 C 315.200 34.980,314.930 34.800,314.600 34.800 C 314.270 34.800,314.000 34.620,314.000 34.400 C 314.000 34.180,313.770 34.000,313.488 34.000 C 313.207 34.000,312.724 33.650,312.415 33.221 C 312.107 32.793,311.731 32.519,311.579 32.613 C 311.428 32.706,310.786 32.337,310.152 31.792 C 309.518 31.247,308.858 30.801,308.684 30.800 C 308.284 30.800,305.845 29.102,305.667 28.700 C 305.437 28.183,304.400 28.373,304.400 28.932 M73.906 43.372 C 73.524 43.651,73.321 43.988,73.454 44.121 C 73.587 44.253,73.965 44.092,74.295 43.762 C 75.072 42.985,74.803 42.716,73.906 43.372 M61.277 54.387 C 60.593 55.040,60.162 55.645,60.317 55.731 C 60.473 55.817,61.190 55.283,61.911 54.544 C 63.530 52.885,62.988 52.751,61.277 54.387 M53.443 62.233 C 53.067 63.211,53.149 63.308,53.800 62.657 C 54.480 61.977,54.567 61.600,54.043 61.600 C 53.846 61.600,53.576 61.885,53.443 62.233 M380.800 113.754 C 380.800 114.059,381.069 114.824,381.398 115.454 C 381.726 116.084,381.996 116.906,381.998 117.280 C 381.999 117.654,382.225 118.104,382.500 118.280 C 382.775 118.456,383.000 118.855,383.000 119.167 C 383.000 119.478,383.225 119.808,383.500 119.900 C 383.814 120.005,384.000 119.682,384.000 119.033 C 384.000 118.465,383.820 118.000,383.600 118.000 C 383.380 118.000,383.200 117.640,383.200 117.200 C 383.200 116.760,383.020 116.400,382.800 116.400 C 382.580 116.400,382.400 116.040,382.400 115.600 C 382.400 115.160,382.220 114.800,382.000 114.800 C 381.780 114.800,381.600 114.440,381.600 114.000 C 381.600 113.560,381.420 113.200,381.200 113.200 C 380.980 113.200,380.800 113.449,380.800 113.754 M383.855 120.311 C 383.600 120.723,384.512 123.600,384.898 123.600 C 385.064 123.600,385.200 123.872,385.200 124.205 C 385.200 124.538,385.380 125.168,385.600 125.605 C 385.820 126.042,386.180 126.758,386.400 127.195 C 386.620 127.632,386.800 128.352,386.800 128.795 C 386.800 129.238,386.980 129.600,387.200 129.600 C 387.420 129.600,387.600 130.050,387.600 130.600 C 387.600 131.222,387.827 131.600,388.200 131.600 C 388.573 131.600,388.800 131.222,388.800 130.600 C 388.800 130.050,388.653 129.600,388.472 129.600 C 388.292 129.600,387.900 128.700,387.600 127.600 C 387.300 126.500,386.908 125.600,386.728 125.600 C 386.547 125.600,386.400 125.161,386.400 124.624 C 386.400 124.087,386.220 123.536,386.000 123.400 C 385.780 123.264,385.600 122.803,385.600 122.376 C 385.600 121.949,385.420 121.600,385.200 121.600 C 384.980 121.600,384.800 121.240,384.800 120.800 C 384.800 120.008,384.226 119.711,383.855 120.311 M388.400 132.800 C 388.400 133.244,388.667 133.600,389.000 133.600 C 389.333 133.600,389.600 133.244,389.600 132.800 C 389.600 132.356,389.333 132.000,389.000 132.000 C 388.667 132.000,388.400 132.356,388.400 132.800 M98.400 135.668 C 97.352 136.620,97.101 136.965,97.800 136.495 C 98.904 135.751,100.738 133.977,100.362 134.017 C 100.273 134.026,99.390 134.770,98.400 135.668 M389.200 135.200 C 389.200 135.644,389.467 136.000,389.800 136.000 C 390.133 136.000,390.400 135.644,390.400 135.200 C 390.400 134.756,390.133 134.400,389.800 134.400 C 389.467 134.400,389.200 134.756,389.200 135.200 M390.000 137.600 C 390.000 138.040,390.180 138.400,390.400 138.400 C 390.620 138.400,390.800 138.040,390.800 137.600 C 390.800 137.160,390.620 136.800,390.400 136.800 C 390.180 136.800,390.000 137.160,390.000 137.600 M390.800 139.800 C 390.800 140.350,390.980 140.800,391.200 140.800 C 391.420 140.800,391.600 140.350,391.600 139.800 C 391.600 139.250,391.420 138.800,391.200 138.800 C 390.980 138.800,390.800 139.250,390.800 139.800 M391.600 142.200 C 391.600 142.750,391.780 143.200,392.000 143.200 C 392.220 143.200,392.400 142.750,392.400 142.200 C 392.400 141.650,392.220 141.200,392.000 141.200 C 391.780 141.200,391.600 141.650,391.600 142.200 M144.600 144.000 C 144.941 144.660,145.311 145.200,145.421 145.200 C 145.531 145.200,145.341 144.660,145.000 144.000 C 144.659 143.340,144.289 142.800,144.179 142.800 C 144.069 142.800,144.259 143.340,144.600 144.000 M392.400 144.776 C 392.400 145.449,392.580 146.000,392.800 146.000 C 393.020 146.000,393.200 145.561,393.200 145.024 C 393.200 144.487,393.020 143.936,392.800 143.800 C 392.567 143.656,392.400 144.063,392.400 144.776 M89.781 146.837 C 89.429 147.518,89.212 148.145,89.299 148.232 C 89.386 148.319,89.756 147.762,90.122 146.995 C 90.944 145.270,90.659 145.138,89.781 146.837 M393.200 147.800 C 393.200 148.350,393.380 148.800,393.600 148.800 C 393.820 148.800,394.000 148.350,394.000 147.800 C 394.000 147.250,393.820 146.800,393.600 146.800 C 393.380 146.800,393.200 147.250,393.200 147.800 M394.000 151.000 C 394.000 151.550,394.180 152.000,394.400 152.000 C 394.620 152.000,394.800 151.550,394.800 151.000 C 394.800 150.450,394.620 150.000,394.400 150.000 C 394.180 150.000,394.000 150.450,394.000 151.000 M87.849 152.215 C 87.712 152.573,87.618 153.256,87.641 153.733 C 87.667 154.281,87.803 154.086,88.010 153.203 C 88.360 151.716,88.265 151.133,87.849 152.215 M148.268 153.400 C 148.571 155.377,148.802 155.714,148.794 154.167 C 148.791 153.525,148.616 152.730,148.405 152.400 C 148.145 151.991,148.101 152.310,148.268 153.400 M394.800 154.400 C 394.800 155.060,394.980 155.600,395.200 155.600 C 395.420 155.600,395.600 155.060,395.600 154.400 C 395.600 153.740,395.420 153.200,395.200 153.200 C 394.980 153.200,394.800 153.740,394.800 154.400 M395.600 157.376 C 395.600 158.159,395.780 158.800,396.000 158.800 C 396.220 158.800,396.400 158.271,396.400 157.624 C 396.400 156.977,396.220 156.336,396.000 156.200 C 395.762 156.053,395.600 156.529,395.600 157.376 M148.920 159.600 C 148.920 160.810,148.995 161.305,149.087 160.700 C 149.178 160.095,149.178 159.105,149.087 158.500 C 148.995 157.895,148.920 158.390,148.920 159.600 M86.898 208.092 L 86.800 257.584 78.300 257.692 L 69.800 257.800 69.697 285.968 C 69.584 317.034,69.530 316.315,72.089 318.000 C 73.345 318.827,323.750 319.125,326.246 318.302 C 327.195 317.990,328.116 317.286,328.685 316.441 L 329.600 315.082 329.600 286.342 L 329.600 257.603 280.300 257.502 L 231.000 257.400 230.898 209.897 L 230.797 162.394 205.098 162.497 L 179.400 162.600 179.298 210.100 L 179.197 257.600 140.462 257.600 C 119.159 257.600,98.460 257.482,94.466 257.337 L 87.203 257.074 87.100 207.837 L 86.997 158.600 86.898 208.092 M396.400 161.400 C 396.400 162.170,396.580 162.800,396.800 162.800 C 397.020 162.800,397.200 162.170,397.200 161.400 C 397.200 160.630,397.020 160.000,396.800 160.000 C 396.580 160.000,396.400 160.630,396.400 161.400 M397.200 165.576 C 397.200 166.469,397.380 167.200,397.600 167.200 C 397.820 167.200,398.000 166.581,398.000 165.824 C 398.000 165.067,397.820 164.336,397.600 164.200 C 397.358 164.051,397.200 164.596,397.200 165.576 M398.000 170.800 C 398.000 171.900,398.180 172.800,398.400 172.800 C 398.620 172.800,398.800 171.900,398.800 170.800 C 398.800 169.700,398.620 168.800,398.400 168.800 C 398.180 168.800,398.000 169.700,398.000 170.800 M398.800 176.800 C 398.800 178.133,398.978 179.200,399.200 179.200 C 399.422 179.200,399.600 178.133,399.600 176.800 C 399.600 175.467,399.422 174.400,399.200 174.400 C 398.978 174.400,398.800 175.467,398.800 176.800 M399.742 185.400 C 399.741 187.380,399.808 188.240,399.892 187.312 C 399.976 186.384,399.977 184.764,399.895 183.712 C 399.812 182.660,399.743 183.420,399.742 185.400 M399.737 215.000 C 399.739 216.760,399.809 217.430,399.893 216.489 C 399.978 215.549,399.977 214.109,399.891 213.289 C 399.805 212.470,399.736 213.240,399.737 215.000 M398.800 223.576 C 398.800 224.689,398.980 225.600,399.200 225.600 C 399.420 225.600,399.600 224.801,399.600 223.824 C 399.600 222.847,399.420 221.936,399.200 221.800 C 398.953 221.648,398.800 222.329,398.800 223.576 M398.000 229.600 C 398.000 230.480,398.180 231.200,398.400 231.200 C 398.620 231.200,398.800 230.480,398.800 229.600 C 398.800 228.720,398.620 228.000,398.400 228.000 C 398.180 228.000,398.000 228.720,398.000 229.600 M397.200 234.800 C 397.200 235.460,397.380 236.000,397.600 236.000 C 397.820 236.000,398.000 235.460,398.000 234.800 C 398.000 234.140,397.820 233.600,397.600 233.600 C 397.380 233.600,397.200 234.140,397.200 234.800 M396.700 238.231 C 396.535 238.397,396.400 238.899,396.400 239.347 C 396.400 239.935,396.521 240.039,396.838 239.722 C 397.078 239.482,397.213 238.980,397.138 238.607 C 397.062 238.233,396.865 238.064,396.700 238.231 M395.600 243.024 C 395.600 243.604,395.773 243.940,396.000 243.800 C 396.220 243.664,396.400 243.203,396.400 242.776 C 396.400 242.349,396.220 242.000,396.000 242.000 C 395.780 242.000,395.600 242.461,395.600 243.024 M394.800 246.000 C 394.800 246.440,394.980 246.800,395.200 246.800 C 395.420 246.800,395.600 246.440,395.600 246.000 C 395.600 245.560,395.420 245.200,395.200 245.200 C 394.980 245.200,394.800 245.560,394.800 246.000 M394.000 249.200 C 394.000 249.640,394.180 250.000,394.400 250.000 C 394.620 250.000,394.800 249.640,394.800 249.200 C 394.800 248.760,394.620 248.400,394.400 248.400 C 394.180 248.400,394.000 248.760,394.000 249.200 M393.200 252.600 C 393.200 252.930,393.380 253.200,393.600 253.200 C 393.820 253.200,394.000 252.930,394.000 252.600 C 394.000 252.270,393.820 252.000,393.600 252.000 C 393.380 252.000,393.200 252.270,393.200 252.600 M392.400 255.624 C 392.400 256.077,392.580 256.336,392.800 256.200 C 393.020 256.064,393.200 255.693,393.200 255.376 C 393.200 255.059,393.020 254.800,392.800 254.800 C 392.580 254.800,392.400 255.171,392.400 255.624 M391.600 258.200 C 391.600 258.530,391.780 258.800,392.000 258.800 C 392.220 258.800,392.400 258.530,392.400 258.200 C 392.400 257.870,392.220 257.600,392.000 257.600 C 391.780 257.600,391.600 257.870,391.600 258.200 M235.425 275.254 C 239.706 277.266,240.808 282.149,237.673 285.222 C 236.659 286.216,235.690 286.800,235.055 286.800 C 234.501 286.800,233.936 286.980,233.800 287.200 C 233.638 287.462,221.804 287.600,199.600 287.600 C 177.396 287.600,165.562 287.462,165.400 287.200 C 165.264 286.980,164.706 286.800,164.161 286.800 C 160.220 286.800,158.483 279.996,161.615 276.832 C 162.504 275.934,163.573 275.200,163.992 275.200 C 164.410 275.200,164.864 275.020,165.000 274.800 C 165.581 273.861,233.390 274.297,235.425 275.254 M385.600 276.024 C 385.600 276.477,385.780 276.736,386.000 276.600 C 386.220 276.464,386.400 276.093,386.400 275.776 C 386.400 275.459,386.220 275.200,386.000 275.200 C 385.780 275.200,385.600 275.571,385.600 276.024 M384.800 277.800 C 384.800 278.130,384.980 278.400,385.200 278.400 C 385.420 278.400,385.600 278.130,385.600 277.800 C 385.600 277.470,385.420 277.200,385.200 277.200 C 384.980 277.200,384.800 277.470,384.800 277.800 M356.060 325.842 C 355.762 326.178,355.599 326.532,355.695 326.629 C 355.792 326.726,356.198 326.444,356.598 326.002 C 356.997 325.561,357.161 325.207,356.962 325.215 C 356.763 325.224,356.357 325.505,356.060 325.842 " stroke="none" fill="#e6ecec" fill-rule="evenodd"></path><path id="path1" d="M187.200 0.376 C 186.430 0.524,183.955 0.565,181.700 0.466 C 178.785 0.337,177.600 0.417,177.600 0.743 C 177.600 1.045,176.590 1.200,174.624 1.200 C 172.987 1.200,171.536 1.380,171.400 1.600 C 171.264 1.820,170.083 2.000,168.776 2.000 C 167.459 2.000,166.400 2.178,166.400 2.400 C 166.400 2.620,165.410 2.800,164.200 2.800 C 162.990 2.800,162.000 2.980,162.000 3.200 C 162.000 3.420,161.190 3.600,160.200 3.600 C 159.210 3.600,158.400 3.780,158.400 4.000 C 158.400 4.220,157.691 4.400,156.824 4.400 C 155.957 4.400,155.136 4.580,155.000 4.800 C 154.864 5.020,154.043 5.200,153.176 5.200 C 152.309 5.200,151.600 5.380,151.600 5.600 C 151.600 5.820,150.880 6.000,150.000 6.000 C 149.120 6.000,148.400 6.180,148.400 6.400 C 148.400 6.620,147.770 6.800,147.000 6.800 C 146.230 6.800,145.600 6.980,145.600 7.200 C 145.600 7.420,144.970 7.600,144.200 7.600 C 143.430 7.600,142.800 7.780,142.800 8.000 C 142.800 8.220,142.069 8.400,141.176 8.400 C 140.196 8.400,139.651 8.558,139.800 8.800 C 139.936 9.020,139.872 9.200,139.657 9.200 C 139.442 9.200,139.176 8.975,139.065 8.700 C 138.904 8.300,138.857 8.300,138.832 8.700 C 138.814 8.975,138.530 9.200,138.200 9.200 C 137.870 9.200,137.600 9.372,137.600 9.582 C 137.600 9.792,136.976 9.884,136.214 9.786 C 135.146 9.649,134.878 9.737,135.043 10.167 C 135.207 10.595,134.921 10.694,133.823 10.592 C 133.013 10.517,132.489 10.620,132.618 10.830 C 132.744 11.033,132.297 11.200,131.624 11.200 C 130.951 11.200,130.400 11.380,130.400 11.600 C 130.400 11.820,129.860 12.000,129.200 12.000 C 128.540 12.000,128.000 12.180,128.000 12.400 C 128.000 12.620,127.640 12.800,127.200 12.800 C 126.760 12.800,126.400 12.980,126.400 13.200 C 126.400 13.420,125.849 13.600,125.176 13.600 C 124.463 13.600,124.056 13.767,124.200 14.000 C 124.336 14.220,124.077 14.400,123.624 14.400 C 123.171 14.400,122.800 14.580,122.800 14.800 C 122.800 15.020,122.609 15.200,122.376 15.200 C 122.143 15.200,122.054 15.037,122.177 14.837 C 122.300 14.638,121.952 14.683,121.404 14.937 C 120.855 15.192,120.405 15.535,120.403 15.700 C 120.401 15.865,120.040 16.000,119.600 16.000 C 119.160 16.000,118.800 16.180,118.800 16.400 C 118.800 16.620,118.440 16.800,118.000 16.800 C 117.560 16.800,117.200 16.980,117.200 17.200 C 117.200 17.420,116.840 17.600,116.400 17.600 C 115.960 17.600,115.600 17.780,115.600 18.000 C 115.600 18.220,115.060 18.400,114.400 18.400 C 113.740 18.400,113.200 18.580,113.200 18.800 C 113.200 19.020,112.840 19.200,112.400 19.200 C 111.960 19.200,111.600 19.380,111.600 19.600 C 111.600 19.820,111.280 20.000,110.888 20.000 C 110.497 20.000,109.917 20.360,109.600 20.800 C 109.261 21.270,108.565 21.600,107.912 21.600 C 107.300 21.600,106.800 21.780,106.800 22.000 C 106.800 22.220,106.395 22.403,105.900 22.406 C 105.172 22.411,105.115 22.486,105.600 22.800 C 106.085 23.114,106.028 23.189,105.300 23.194 C 104.805 23.197,104.400 23.380,104.400 23.600 C 104.400 23.820,104.040 24.000,103.600 24.000 C 103.160 24.000,102.800 24.180,102.800 24.400 C 102.800 24.620,102.570 24.800,102.288 24.800 C 102.007 24.800,101.517 25.160,101.200 25.600 C 100.883 26.040,100.303 26.400,99.912 26.400 C 99.520 26.400,99.200 26.580,99.200 26.800 C 99.200 27.020,98.840 27.200,98.400 27.200 C 97.960 27.200,97.600 27.399,97.600 27.643 C 97.600 27.886,97.343 27.987,97.029 27.867 C 96.715 27.746,96.245 27.905,95.984 28.219 C 95.723 28.534,95.352 28.694,95.159 28.575 C 94.967 28.456,94.924 28.659,95.065 29.025 C 95.271 29.562,95.153 29.639,94.461 29.419 C 93.947 29.256,93.600 29.318,93.600 29.573 C 93.600 29.808,93.319 30.000,92.976 30.000 C 92.633 30.000,92.464 30.180,92.600 30.400 C 92.746 30.636,92.303 30.803,91.524 30.806 C 90.522 30.811,90.346 30.907,90.800 31.200 C 91.309 31.529,91.290 31.589,90.676 31.594 C 90.278 31.597,90.067 31.784,90.206 32.010 C 90.345 32.235,90.311 32.394,90.130 32.363 C 89.222 32.205,88.381 32.445,88.600 32.800 C 88.736 33.020,88.477 33.200,88.024 33.200 C 87.571 33.200,87.200 33.380,87.200 33.600 C 87.200 33.820,86.975 34.003,86.700 34.007 C 86.140 34.015,84.159 35.538,82.155 37.500 C 81.424 38.215,80.627 38.800,80.382 38.800 C 80.137 38.800,79.246 39.520,78.400 40.400 C 77.554 41.280,76.651 42.000,76.392 42.000 C 76.133 42.000,75.417 42.540,74.800 43.200 C 74.183 43.860,73.481 44.400,73.238 44.400 C 72.995 44.400,71.943 45.209,70.899 46.198 C 69.854 47.187,68.849 47.997,68.664 47.998 C 68.300 48.000,65.599 50.418,64.243 51.955 C 61.535 55.026,59.644 56.742,59.463 56.294 C 59.349 56.012,59.250 56.108,59.232 56.518 C 59.190 57.459,57.434 59.198,56.518 59.206 C 55.908 59.211,55.890 59.271,56.400 59.600 C 56.909 59.929,56.890 59.989,56.276 59.994 C 55.878 59.997,55.628 60.135,55.721 60.300 C 55.813 60.465,54.924 61.529,53.744 62.664 C 52.565 63.799,51.600 64.662,51.600 64.581 C 51.600 64.500,50.790 65.300,49.800 66.359 C 48.810 67.417,47.999 68.444,47.998 68.641 C 47.997 68.839,47.187 69.854,46.199 70.898 C 45.210 71.941,44.356 73.016,44.301 73.285 C 44.245 73.554,43.345 74.623,42.300 75.661 C 41.255 76.699,40.400 77.758,40.400 78.014 C 40.400 78.270,39.860 78.983,39.200 79.600 C 38.540 80.217,38.000 80.916,38.000 81.154 C 38.000 81.392,37.551 82.084,37.003 82.693 C 34.872 85.058,34.001 86.219,34.000 86.697 C 34.000 86.970,33.640 87.418,33.200 87.693 C 32.760 87.968,32.400 88.469,32.400 88.808 C 32.400 89.146,32.040 89.683,31.600 90.000 C 31.160 90.317,30.800 90.897,30.800 91.288 C 30.800 91.680,30.620 92.000,30.400 92.000 C 30.180 92.000,30.000 92.236,30.000 92.525 C 30.000 92.813,29.640 93.436,29.200 93.908 C 28.760 94.380,28.400 94.967,28.400 95.212 C 28.400 95.457,28.130 95.927,27.800 96.257 C 27.470 96.587,27.200 97.204,27.200 97.629 C 27.200 98.053,27.020 98.400,26.800 98.400 C 26.580 98.400,26.400 98.678,26.400 99.017 C 26.400 99.356,26.040 100.020,25.600 100.492 C 25.160 100.964,24.800 101.587,24.800 101.875 C 24.800 102.164,24.620 102.400,24.400 102.400 C 24.180 102.400,24.000 102.670,24.000 103.000 C 24.000 103.330,23.820 103.600,23.600 103.600 C 23.380 103.600,23.200 103.960,23.200 104.400 C 23.200 104.840,23.020 105.200,22.800 105.200 C 22.580 105.200,22.400 105.560,22.400 106.000 C 22.400 106.440,22.220 106.800,22.000 106.800 C 21.780 106.800,21.600 107.160,21.600 107.600 C 21.600 108.040,21.420 108.400,21.200 108.400 C 20.980 108.400,20.800 108.760,20.800 109.200 C 20.800 109.640,20.620 110.000,20.400 110.000 C 20.180 110.000,20.000 110.360,20.000 110.800 C 20.000 111.240,19.820 111.600,19.600 111.600 C 19.380 111.600,19.200 111.960,19.200 112.400 C 19.200 112.840,19.020 113.200,18.800 113.200 C 18.580 113.200,18.400 113.560,18.400 114.000 C 18.400 114.440,18.220 114.800,18.000 114.800 C 17.780 114.800,17.600 115.160,17.600 115.600 C 17.600 116.040,17.420 116.400,17.200 116.400 C 16.980 116.400,16.800 116.760,16.800 117.200 C 16.800 117.640,16.620 118.000,16.400 118.000 C 16.180 118.000,16.000 118.343,16.000 118.762 C 16.000 119.421,15.514 120.589,13.950 123.695 C 13.757 124.077,13.600 124.662,13.600 124.995 C 13.600 125.328,13.420 125.600,13.200 125.600 C 12.980 125.600,12.800 126.039,12.800 126.576 C 12.800 127.113,12.620 127.664,12.400 127.800 C 12.180 127.936,12.000 128.397,12.000 128.824 C 12.000 129.251,11.820 129.600,11.600 129.600 C 11.380 129.600,11.200 129.992,11.200 130.472 C 11.200 131.511,10.338 134.102,9.881 134.437 C 9.703 134.567,9.594 134.837,9.638 135.037 C 9.800 135.776,9.086 138.800,8.749 138.800 C 8.557 138.800,8.400 139.340,8.400 140.000 C 8.400 140.660,8.220 141.200,8.000 141.200 C 7.780 141.200,7.600 141.740,7.600 142.400 C 7.600 143.060,7.420 143.600,7.200 143.600 C 6.980 143.600,6.800 144.320,6.800 145.200 C 6.800 146.080,6.620 146.800,6.400 146.800 C 6.180 146.800,6.000 147.520,6.000 148.400 C 6.000 149.280,5.820 150.000,5.600 150.000 C 5.380 150.000,5.200 150.720,5.200 151.600 C 5.200 152.480,5.020 153.200,4.800 153.200 C 4.580 153.200,4.400 153.920,4.400 154.800 C 4.400 155.680,4.220 156.400,4.000 156.400 C 3.780 156.400,3.600 157.210,3.600 158.200 C 3.600 159.190,3.420 160.000,3.200 160.000 C 2.980 160.000,2.800 160.900,2.800 162.000 C 2.800 163.100,2.620 164.000,2.400 164.000 C 2.178 164.000,2.000 165.067,2.000 166.400 C 2.000 167.733,1.822 168.800,1.600 168.800 C 1.372 168.800,1.200 169.989,1.200 171.567 C 1.200 173.424,1.036 174.388,0.700 174.500 C -0.032 174.744,-0.032 225.256,0.700 225.500 C 1.036 225.612,1.200 226.576,1.200 228.433 C 1.200 230.011,1.372 231.200,1.600 231.200 C 1.822 231.200,2.000 232.267,2.000 233.600 C 2.000 234.933,2.178 236.000,2.400 236.000 C 2.620 236.000,2.800 236.900,2.800 238.000 C 2.800 239.100,2.980 240.000,3.200 240.000 C 3.420 240.000,3.600 240.799,3.600 241.776 C 3.600 242.753,3.780 243.664,4.000 243.800 C 4.220 243.936,4.400 244.667,4.400 245.424 C 4.400 246.181,4.580 246.800,4.800 246.800 C 5.020 246.800,5.200 247.520,5.200 248.400 C 5.200 249.280,5.380 250.000,5.600 250.000 C 5.820 250.000,6.000 250.720,6.000 251.600 C 6.000 252.480,6.180 253.200,6.400 253.200 C 6.620 253.200,6.800 253.920,6.800 254.800 C 6.800 255.680,6.980 256.400,7.200 256.400 C 7.420 256.400,7.600 256.940,7.600 257.600 C 7.600 258.260,7.780 258.800,8.000 258.800 C 8.220 258.800,8.400 259.340,8.400 260.000 C 8.400 260.660,8.560 261.200,8.756 261.200 C 9.063 261.200,9.451 262.742,9.660 264.800 C 9.694 265.130,9.830 265.490,9.963 265.600 C 10.361 265.930,11.200 268.593,11.200 269.528 C 11.200 270.008,11.347 270.400,11.528 270.400 C 11.708 270.400,12.100 271.300,12.400 272.400 C 12.700 273.500,13.053 274.400,13.185 274.400 C 13.317 274.400,13.674 275.255,13.978 276.300 C 14.282 277.345,14.636 278.290,14.765 278.400 C 15.298 278.854,16.000 280.443,16.000 281.195 C 16.000 281.638,16.180 282.000,16.400 282.000 C 16.620 282.000,16.800 282.360,16.800 282.800 C 16.800 283.240,16.980 283.600,17.200 283.600 C 17.420 283.600,17.600 283.960,17.600 284.400 C 17.600 284.840,17.780 285.200,18.000 285.200 C 18.220 285.200,18.400 285.560,18.400 286.000 C 18.400 286.440,18.580 286.800,18.800 286.800 C 19.020 286.800,19.200 287.160,19.200 287.600 C 19.200 288.040,19.380 288.400,19.600 288.400 C 19.820 288.400,20.000 288.760,20.000 289.200 C 20.000 289.640,20.180 290.000,20.400 290.000 C 20.620 290.000,20.800 290.360,20.800 290.800 C 20.800 291.240,20.980 291.600,21.200 291.600 C 21.420 291.600,21.600 291.960,21.600 292.400 C 21.600 292.840,21.780 293.200,22.000 293.200 C 22.220 293.200,22.400 293.560,22.400 294.000 C 22.400 294.440,22.580 294.800,22.800 294.800 C 23.020 294.800,23.200 295.160,23.200 295.600 C 23.200 296.040,23.336 296.400,23.502 296.400 C 23.669 296.400,24.029 296.906,24.303 297.525 C 24.576 298.144,25.160 299.036,25.600 299.508 C 26.040 299.980,26.400 300.644,26.400 300.983 C 26.400 301.322,26.580 301.600,26.800 301.600 C 27.020 301.600,27.200 301.947,27.200 302.371 C 27.200 302.796,27.470 303.413,27.800 303.743 C 28.130 304.073,28.400 304.626,28.400 304.971 C 28.400 305.317,28.558 305.600,28.751 305.600 C 28.945 305.600,29.327 306.140,29.600 306.800 C 29.873 307.460,30.255 308.000,30.449 308.000 C 30.642 308.000,30.800 308.320,30.800 308.712 C 30.800 309.103,31.160 309.683,31.600 310.000 C 32.040 310.317,32.400 310.857,32.400 311.200 C 32.400 311.543,32.760 312.083,33.200 312.400 C 33.640 312.717,34.000 313.162,34.001 313.388 C 34.001 313.615,34.541 314.430,35.200 315.200 C 35.859 315.970,36.399 316.813,36.399 317.073 C 36.400 317.333,36.760 317.660,37.200 317.800 C 37.640 317.940,38.000 318.330,38.000 318.666 C 38.000 319.003,38.540 319.783,39.200 320.400 C 39.860 321.017,40.400 321.737,40.400 322.000 C 40.400 322.263,40.940 322.983,41.600 323.600 C 42.260 324.217,42.800 324.887,42.800 325.090 C 42.800 325.293,43.719 326.435,44.841 327.629 C 45.964 328.823,47.002 330.113,47.149 330.496 C 47.671 331.861,59.981 344.643,62.958 346.909 C 64.034 347.729,64.811 348.400,64.684 348.400 C 64.557 348.400,65.474 349.390,66.724 350.600 C 67.973 351.810,69.138 352.800,69.312 352.800 C 69.486 352.800,70.027 353.166,70.514 353.612 C 73.089 355.974,74.594 357.200,74.918 357.200 C 75.116 357.200,75.783 357.740,76.400 358.400 C 77.017 359.060,77.737 359.600,78.000 359.600 C 78.263 359.600,78.983 360.140,79.600 360.800 C 80.217 361.460,80.916 362.000,81.154 362.000 C 81.392 362.000,82.084 362.449,82.693 362.997 C 84.962 365.042,86.212 365.999,86.612 366.000 C 86.838 366.000,87.283 366.360,87.600 366.800 C 87.917 367.240,88.457 367.600,88.800 367.600 C 89.143 367.600,89.683 367.960,90.000 368.400 C 90.317 368.840,90.897 369.200,91.288 369.200 C 91.680 369.200,92.000 369.358,92.000 369.551 C 92.000 369.745,92.540 370.127,93.200 370.400 C 93.860 370.673,94.400 371.055,94.400 371.249 C 94.400 371.442,94.683 371.600,95.029 371.600 C 95.374 371.600,95.927 371.870,96.257 372.200 C 96.587 372.530,97.204 372.800,97.629 372.800 C 98.053 372.800,98.400 372.980,98.400 373.200 C 98.400 373.420,98.678 373.600,99.017 373.600 C 99.356 373.600,100.020 373.960,100.492 374.400 C 100.964 374.840,101.587 375.200,101.875 375.200 C 102.164 375.200,102.400 375.380,102.400 375.600 C 102.400 375.820,102.670 376.000,103.000 376.000 C 103.330 376.000,103.600 376.180,103.600 376.400 C 103.600 376.620,103.960 376.800,104.400 376.800 C 104.840 376.800,105.200 376.980,105.200 377.200 C 105.200 377.420,105.560 377.600,106.000 377.600 C 106.440 377.600,106.800 377.780,106.800 378.000 C 106.800 378.220,107.160 378.400,107.600 378.400 C 108.040 378.400,108.400 378.580,108.400 378.800 C 108.400 379.020,108.760 379.200,109.200 379.200 C 109.640 379.200,110.000 379.380,110.000 379.600 C 110.000 379.820,110.360 380.000,110.800 380.000 C 111.240 380.000,111.600 380.180,111.600 380.400 C 111.600 380.620,111.960 380.800,112.400 380.800 C 112.840 380.800,113.200 380.980,113.200 381.200 C 113.200 381.420,113.560 381.600,114.000 381.600 C 114.440 381.600,114.800 381.780,114.800 382.000 C 114.800 382.220,115.160 382.400,115.600 382.400 C 116.040 382.400,116.400 382.580,116.400 382.800 C 116.400 383.020,116.760 383.200,117.200 383.200 C 117.640 383.200,118.000 383.380,118.000 383.600 C 118.000 383.820,118.324 384.000,118.720 384.000 C 119.614 384.000,121.593 384.894,121.597 385.300 C 121.599 385.465,122.050 385.600,122.600 385.600 C 123.150 385.600,123.600 385.780,123.600 386.000 C 123.600 386.220,124.050 386.400,124.600 386.400 C 125.150 386.400,125.600 386.547,125.600 386.728 C 125.600 386.908,126.500 387.300,127.600 387.600 C 128.700 387.900,129.600 388.292,129.600 388.472 C 129.600 388.653,130.140 388.800,130.800 388.800 C 131.460 388.800,132.000 388.980,132.000 389.200 C 132.000 389.420,132.540 389.600,133.200 389.600 C 133.860 389.600,134.400 389.759,134.400 389.954 C 134.400 390.149,135.390 390.432,136.600 390.583 C 137.810 390.734,138.800 391.025,138.800 391.229 C 138.800 391.433,139.340 391.600,140.000 391.600 C 140.660 391.600,141.200 391.780,141.200 392.000 C 141.200 392.220,141.740 392.400,142.400 392.400 C 143.060 392.400,143.600 392.580,143.600 392.800 C 143.600 393.020,144.320 393.200,145.200 393.200 C 146.080 393.200,146.800 393.380,146.800 393.600 C 146.800 393.820,147.520 394.000,148.400 394.000 C 149.280 394.000,150.000 394.180,150.000 394.400 C 150.000 394.620,150.720 394.800,151.600 394.800 C 152.480 394.800,153.200 394.980,153.200 395.200 C 153.200 395.420,153.920 395.600,154.800 395.600 C 155.680 395.600,156.400 395.780,156.400 396.000 C 156.400 396.220,157.210 396.400,158.200 396.400 C 159.190 396.400,160.000 396.580,160.000 396.800 C 160.000 397.020,160.900 397.200,162.000 397.200 C 163.100 397.200,164.000 397.380,164.000 397.600 C 164.000 397.822,165.067 398.000,166.400 398.000 C 167.733 398.000,168.800 398.178,168.800 398.400 C 168.800 398.628,169.989 398.800,171.567 398.800 C 173.424 398.800,174.388 398.964,174.500 399.300 C 174.744 400.032,225.256 400.032,225.500 399.300 C 225.612 398.964,226.576 398.800,228.433 398.800 C 230.011 398.800,231.200 398.628,231.200 398.400 C 231.200 398.178,232.267 398.000,233.600 398.000 C 234.933 398.000,236.000 397.822,236.000 397.600 C 236.000 397.380,236.900 397.200,238.000 397.200 C 239.100 397.200,240.000 397.020,240.000 396.800 C 240.000 396.580,240.799 396.400,241.776 396.400 C 242.753 396.400,243.664 396.220,243.800 396.000 C 243.936 395.780,244.667 395.600,245.424 395.600 C 246.181 395.600,246.800 395.420,246.800 395.200 C 246.800 394.980,247.520 394.800,248.400 394.800 C 249.280 394.800,250.000 394.620,250.000 394.400 C 250.000 394.180,250.720 394.000,251.600 394.000 C 252.480 394.000,253.200 393.820,253.200 393.600 C 253.200 393.380,253.920 393.200,254.800 393.200 C 255.680 393.200,256.400 393.020,256.400 392.800 C 256.400 392.580,256.940 392.400,257.600 392.400 C 258.260 392.400,258.800 392.220,258.800 392.000 C 258.800 391.780,259.340 391.600,260.000 391.600 C 260.660 391.600,261.200 391.441,261.200 391.246 C 261.200 391.051,262.190 390.768,263.400 390.617 C 264.610 390.466,265.600 390.175,265.600 389.971 C 265.600 389.767,266.140 389.600,266.800 389.600 C 267.460 389.600,268.000 389.420,268.000 389.200 C 268.000 388.980,268.540 388.800,269.200 388.800 C 269.860 388.800,270.400 388.653,270.400 388.472 C 270.400 388.292,271.300 387.900,272.400 387.600 C 273.500 387.300,274.400 386.908,274.400 386.728 C 274.400 386.547,274.839 386.400,275.376 386.400 C 275.913 386.400,276.464 386.220,276.600 386.000 C 276.736 385.780,277.197 385.600,277.624 385.600 C 278.051 385.600,278.400 385.420,278.400 385.200 C 278.400 384.980,278.760 384.800,279.200 384.800 C 279.640 384.800,280.000 384.620,280.000 384.400 C 280.000 384.180,280.349 384.000,280.776 384.000 C 281.203 384.000,281.664 383.820,281.800 383.600 C 281.936 383.380,282.397 383.200,282.824 383.200 C 283.251 383.200,283.600 383.020,283.600 382.800 C 283.600 382.580,283.960 382.400,284.400 382.400 C 284.840 382.400,285.200 382.220,285.200 382.000 C 285.200 381.780,285.560 381.600,286.000 381.600 C 286.440 381.600,286.800 381.420,286.800 381.200 C 286.800 380.980,287.160 380.800,287.600 380.800 C 288.040 380.800,288.400 380.620,288.400 380.400 C 288.400 380.180,288.760 380.000,289.200 380.000 C 289.640 380.000,290.000 379.820,290.000 379.600 C 290.000 379.380,290.360 379.200,290.800 379.200 C 291.240 379.200,291.600 379.020,291.600 378.800 C 291.600 378.580,291.960 378.400,292.400 378.400 C 292.840 378.400,293.200 378.220,293.200 378.000 C 293.200 377.780,293.560 377.600,294.000 377.600 C 294.440 377.600,294.800 377.420,294.800 377.200 C 294.800 376.980,295.160 376.800,295.600 376.800 C 296.040 376.800,296.400 376.664,296.400 376.498 C 296.400 376.331,296.906 375.971,297.525 375.697 C 298.144 375.424,299.036 374.840,299.508 374.400 C 299.980 373.960,300.644 373.600,300.983 373.600 C 301.322 373.600,301.600 373.420,301.600 373.200 C 301.600 372.980,301.938 372.800,302.351 372.800 C 302.764 372.800,303.326 372.530,303.600 372.200 C 303.874 371.870,304.436 371.600,304.849 371.600 C 305.262 371.600,305.600 371.442,305.600 371.249 C 305.600 371.055,306.140 370.673,306.800 370.400 C 307.460 370.127,308.000 369.745,308.000 369.551 C 308.000 369.358,308.320 369.200,308.712 369.200 C 309.103 369.200,309.683 368.840,310.000 368.400 C 310.317 367.960,310.815 367.600,311.106 367.600 C 311.398 367.600,312.086 367.150,312.636 366.600 C 313.186 366.050,313.800 365.600,314.000 365.600 C 314.200 365.600,314.814 365.150,315.364 364.600 C 315.914 364.050,316.672 363.600,317.048 363.600 C 317.425 363.600,317.622 363.489,317.486 363.352 C 317.109 362.976,318.247 362.001,319.071 361.994 C 319.688 361.989,319.708 361.928,319.200 361.600 C 318.704 361.280,318.741 361.211,319.412 361.206 C 319.858 361.203,320.483 360.840,320.800 360.400 C 321.117 359.960,321.621 359.600,321.920 359.600 C 322.218 359.600,323.154 358.880,324.000 358.000 C 324.846 357.120,325.740 356.400,325.987 356.400 C 326.234 356.400,326.876 355.995,327.414 355.500 C 329.951 353.164,330.394 352.800,330.699 352.800 C 331.180 352.800,336.800 347.276,336.800 346.803 C 336.800 346.581,337.160 346.400,337.600 346.400 C 338.316 346.400,338.587 345.984,338.447 345.100 C 338.421 344.935,338.655 344.800,338.966 344.800 C 339.781 344.800,342.399 342.143,342.406 341.307 C 342.411 340.704,342.469 340.688,342.800 341.200 C 343.114 341.685,343.189 341.628,343.194 340.900 C 343.197 340.405,343.335 340.021,343.500 340.047 C 344.384 340.187,344.800 339.916,344.800 339.200 C 344.800 338.760,344.935 338.421,345.100 338.447 C 345.984 338.587,346.400 338.316,346.400 337.600 C 346.400 337.160,346.565 336.800,346.767 336.800 C 347.180 336.800,351.200 332.858,351.200 332.453 C 351.200 332.310,351.560 331.968,352.000 331.693 C 352.440 331.418,352.800 331.007,352.800 330.778 C 352.800 330.550,353.250 329.914,353.800 329.364 C 354.350 328.814,354.800 328.091,354.800 327.758 C 354.800 327.425,354.980 327.264,355.200 327.400 C 355.420 327.536,355.600 327.352,355.600 326.992 C 355.600 326.632,356.320 325.646,357.200 324.800 C 358.080 323.954,358.800 323.051,358.800 322.792 C 358.800 322.533,359.340 321.817,360.000 321.200 C 360.660 320.583,361.200 319.857,361.200 319.586 C 361.200 319.054,362.708 317.600,363.261 317.600 C 363.448 317.600,363.600 317.280,363.600 316.888 C 363.600 316.497,363.960 315.917,364.400 315.600 C 364.840 315.283,365.200 314.791,365.200 314.508 C 365.200 314.225,365.740 313.428,366.400 312.737 C 367.060 312.046,367.600 311.238,367.600 310.941 C 367.600 310.643,367.780 310.400,368.000 310.400 C 368.220 310.400,368.400 310.040,368.400 309.600 C 368.400 309.160,368.580 308.800,368.800 308.800 C 369.020 308.800,369.200 308.429,369.200 307.976 C 369.200 307.523,369.380 307.264,369.600 307.400 C 369.820 307.536,370.000 307.367,370.000 307.024 C 370.000 306.681,370.180 306.400,370.400 306.400 C 370.620 306.400,370.800 306.029,370.800 305.576 C 370.800 305.123,370.980 304.864,371.200 305.000 C 371.420 305.136,371.600 304.967,371.600 304.624 C 371.600 304.281,371.801 304.000,372.047 304.000 C 372.296 304.000,372.401 303.647,372.284 303.200 C 372.169 302.760,372.238 302.400,372.437 302.400 C 372.637 302.400,372.800 302.040,372.800 301.600 C 372.800 301.160,372.980 300.800,373.200 300.800 C 373.420 300.800,373.600 300.452,373.600 300.027 C 373.600 299.602,373.960 299.140,374.400 299.000 C 374.911 298.838,375.200 298.395,375.200 297.773 C 375.200 297.238,375.380 296.800,375.600 296.800 C 375.820 296.800,376.000 296.545,376.000 296.233 C 376.000 295.922,376.166 295.607,376.370 295.533 C 376.573 295.460,376.798 295.130,376.870 294.800 C 376.941 294.470,377.315 293.909,377.700 293.553 C 378.085 293.197,378.400 292.623,378.400 292.277 C 378.400 291.930,378.580 291.536,378.800 291.400 C 379.020 291.264,379.200 290.713,379.200 290.176 C 379.200 289.639,379.380 289.200,379.600 289.200 C 379.820 289.200,380.000 288.840,380.000 288.400 C 380.000 287.960,380.180 287.600,380.400 287.600 C 380.620 287.600,380.800 287.240,380.800 286.800 C 380.800 286.360,380.980 286.000,381.200 286.000 C 381.420 286.000,381.600 285.640,381.600 285.200 C 381.600 284.760,381.780 284.400,382.000 284.400 C 382.220 284.400,382.400 284.040,382.400 283.600 C 382.400 283.160,382.580 282.800,382.800 282.800 C 383.020 282.800,383.200 282.339,383.200 281.776 C 383.200 281.196,383.373 280.860,383.600 281.000 C 383.975 281.232,384.177 280.433,384.030 279.300 C 383.994 279.025,384.153 278.800,384.382 278.800 C 384.612 278.800,384.800 278.440,384.800 278.000 C 384.800 277.560,384.980 277.200,385.200 277.200 C 385.420 277.200,385.600 276.750,385.600 276.200 C 385.600 275.650,385.780 275.200,386.000 275.200 C 386.220 275.200,386.400 274.750,386.400 274.200 C 386.400 273.650,386.580 273.200,386.800 273.200 C 387.020 273.200,387.200 272.750,387.200 272.200 C 387.200 271.650,387.380 271.200,387.600 271.200 C 387.820 271.200,388.000 270.840,388.000 270.400 C 388.000 269.960,388.180 269.600,388.400 269.600 C 388.620 269.600,388.800 269.049,388.800 268.376 C 388.800 267.572,388.954 267.248,389.250 267.431 C 389.563 267.624,389.648 267.261,389.529 266.242 C 389.402 265.152,389.492 264.826,389.879 264.975 C 390.178 265.090,390.412 264.882,390.429 264.487 C 390.512 262.475,390.884 260.584,391.219 260.467 C 391.429 260.393,391.600 259.718,391.600 258.967 C 391.600 258.215,391.780 257.600,392.000 257.600 C 392.220 257.600,392.400 256.970,392.400 256.200 C 392.400 255.430,392.580 254.800,392.800 254.800 C 393.020 254.800,393.200 254.170,393.200 253.400 C 393.200 252.630,393.380 252.000,393.600 252.000 C 393.820 252.000,394.000 251.190,394.000 250.200 C 394.000 249.210,394.180 248.400,394.400 248.400 C 394.620 248.400,394.800 247.680,394.800 246.800 C 394.800 245.920,394.980 245.200,395.200 245.200 C 395.420 245.200,395.600 244.480,395.600 243.600 C 395.600 242.720,395.780 242.000,396.000 242.000 C 396.220 242.000,396.400 241.201,396.400 240.224 C 396.400 239.247,396.580 238.336,396.800 238.200 C 397.020 238.064,397.200 236.973,397.200 235.776 C 397.200 234.579,397.380 233.600,397.600 233.600 C 397.829 233.600,398.000 232.400,398.000 230.800 C 398.000 229.200,398.171 228.000,398.400 228.000 C 398.633 228.000,398.800 226.667,398.800 224.800 C 398.800 222.942,398.967 221.600,399.198 221.600 C 399.654 221.600,399.756 217.508,399.725 200.400 C 399.692 182.075,399.614 179.456,399.092 179.133 C 398.788 178.945,398.656 177.785,398.714 175.822 C 398.769 174.003,398.644 172.800,398.402 172.800 C 398.171 172.800,398.000 171.611,398.000 170.000 C 398.000 168.400,397.829 167.200,397.600 167.200 C 397.380 167.200,397.200 166.210,397.200 165.000 C 397.200 163.790,397.020 162.800,396.800 162.800 C 396.580 162.800,396.400 161.900,396.400 160.800 C 396.400 159.700,396.220 158.800,396.000 158.800 C 395.780 158.800,395.600 158.170,395.600 157.400 C 395.600 156.630,395.420 156.000,395.200 156.000 C 394.980 156.000,394.800 155.100,394.800 154.000 C 394.800 152.900,394.620 152.000,394.400 152.000 C 394.180 152.000,394.000 151.280,394.000 150.400 C 394.000 149.520,393.820 148.800,393.600 148.800 C 393.380 148.800,393.200 148.170,393.200 147.400 C 393.200 146.630,393.020 146.000,392.800 146.000 C 392.580 146.000,392.400 145.370,392.400 144.600 C 392.400 143.830,392.220 143.200,392.000 143.200 C 391.780 143.200,391.600 142.660,391.600 142.000 C 391.600 141.340,391.420 140.800,391.200 140.800 C 390.980 140.800,390.800 140.260,390.800 139.600 C 390.800 138.940,390.598 138.400,390.350 138.400 C 390.063 138.400,389.987 137.964,390.140 137.200 C 390.327 136.267,390.238 136.000,389.740 136.000 C 389.242 136.000,389.153 135.733,389.340 134.800 C 389.526 133.869,389.437 133.600,388.943 133.600 C 388.480 133.600,388.359 133.328,388.498 132.600 C 388.626 131.929,388.510 131.600,388.145 131.600 C 387.830 131.600,387.600 131.177,387.600 130.600 C 387.600 130.050,387.420 129.600,387.200 129.600 C 386.980 129.600,386.800 129.150,386.800 128.600 C 386.800 128.050,386.620 127.600,386.400 127.600 C 386.180 127.600,386.000 127.251,386.000 126.824 C 386.000 126.397,385.820 125.936,385.600 125.800 C 385.380 125.664,385.200 125.113,385.200 124.576 C 385.200 124.039,385.020 123.600,384.800 123.600 C 384.580 123.600,384.400 123.251,384.400 122.824 C 384.400 122.397,384.204 121.926,383.965 121.778 C 383.726 121.631,383.619 121.170,383.728 120.755 C 383.852 120.279,383.717 120.000,383.363 120.000 C 383.053 120.000,382.800 119.735,382.800 119.412 C 382.800 119.089,382.470 118.234,382.066 117.512 C 381.246 116.047,380.627 114.060,380.752 113.300 C 380.798 113.025,380.647 112.800,380.418 112.800 C 380.188 112.800,380.000 112.530,380.000 112.200 C 380.000 111.870,379.820 111.600,379.600 111.600 C 379.380 111.600,379.200 111.240,379.200 110.800 C 379.200 110.360,379.020 110.000,378.800 110.000 C 378.580 110.000,378.400 109.655,378.400 109.233 C 378.400 108.812,378.265 108.407,378.100 108.333 C 377.830 108.213,376.622 106.111,375.440 103.703 C 375.198 103.210,374.865 102.805,374.700 102.803 C 374.535 102.801,374.400 102.530,374.400 102.200 C 374.400 101.870,374.254 101.600,374.075 101.600 C 373.896 101.600,373.502 100.970,373.200 100.200 C 372.898 99.430,372.504 98.800,372.325 98.800 C 372.146 98.800,372.000 98.440,372.000 98.000 C 372.000 97.560,371.820 97.200,371.600 97.200 C 371.380 97.200,371.200 96.930,371.200 96.600 C 371.200 96.270,371.020 96.000,370.800 96.000 C 370.580 96.000,370.400 95.730,370.400 95.400 C 370.400 95.070,370.220 94.800,370.000 94.800 C 369.780 94.800,369.600 94.522,369.600 94.183 C 369.600 93.844,369.240 93.180,368.800 92.708 C 368.360 92.236,368.000 91.613,368.000 91.325 C 368.000 91.036,367.820 90.800,367.600 90.800 C 367.380 90.800,367.200 90.544,367.200 90.231 C 367.200 89.918,366.750 89.127,366.200 88.473 C 365.650 87.819,365.200 87.113,365.200 86.904 C 365.200 86.695,364.840 86.198,364.400 85.800 C 363.960 85.402,363.600 84.914,363.600 84.716 C 363.600 84.518,363.061 83.781,362.402 83.078 C 361.743 82.375,361.202 81.620,361.200 81.400 C 361.198 81.180,360.657 80.425,359.998 79.722 C 359.339 79.019,358.800 78.330,358.800 78.190 C 358.800 78.051,358.080 77.224,357.200 76.353 C 356.320 75.482,355.600 74.582,355.600 74.353 C 355.600 74.124,354.880 73.246,354.000 72.400 C 353.120 71.554,352.400 70.761,352.400 70.636 C 352.400 70.318,351.356 69.080,348.800 66.369 C 347.590 65.085,345.520 62.840,344.200 61.379 C 341.113 57.965,341.192 58.044,339.237 56.400 C 338.321 55.630,336.168 53.650,334.453 52.000 C 332.737 50.350,330.731 48.550,329.995 48.000 C 329.258 47.450,328.064 46.415,327.341 45.700 C 326.618 44.985,325.933 44.400,325.818 44.400 C 325.566 44.400,324.244 43.333,322.968 42.100 C 322.456 41.605,321.880 41.200,321.688 41.200 C 321.496 41.200,320.903 40.731,320.370 40.158 C 319.836 39.584,319.040 38.952,318.600 38.753 C 317.481 38.245,315.040 36.763,314.800 36.444 C 314.323 35.813,311.245 33.600,310.842 33.600 C 310.599 33.600,310.400 33.420,310.400 33.200 C 310.400 32.980,310.130 32.800,309.800 32.800 C 309.470 32.800,309.200 32.620,309.200 32.400 C 309.200 32.180,308.964 32.000,308.675 32.000 C 308.387 32.000,307.802 31.685,307.375 31.300 C 306.949 30.915,306.105 30.345,305.500 30.032 C 304.895 29.720,304.400 29.215,304.400 28.909 C 304.400 28.603,304.245 28.448,304.056 28.565 C 303.648 28.818,301.608 27.932,301.603 27.500 C 301.601 27.335,301.240 27.200,300.800 27.200 C 300.360 27.200,300.000 27.020,300.000 26.800 C 300.000 26.580,299.745 26.400,299.433 26.400 C 299.122 26.400,298.807 26.265,298.733 26.100 C 298.660 25.935,295.360 24.207,291.400 22.261 C 287.440 20.315,283.508 18.380,282.662 17.961 C 281.816 17.542,280.871 17.200,280.562 17.200 C 280.253 17.200,280.000 17.020,280.000 16.800 C 280.000 16.580,279.651 16.400,279.224 16.400 C 278.797 16.400,278.336 16.220,278.200 16.000 C 278.064 15.780,277.603 15.600,277.176 15.600 C 276.749 15.600,276.400 15.420,276.400 15.200 C 276.400 14.980,275.950 14.800,275.400 14.800 C 274.850 14.800,274.400 14.620,274.400 14.400 C 274.400 14.180,273.950 14.000,273.400 14.000 C 272.850 14.000,272.400 13.820,272.400 13.600 C 272.400 13.380,271.950 13.200,271.400 13.200 C 270.850 13.200,270.400 13.020,270.400 12.800 C 270.400 12.580,269.950 12.400,269.400 12.400 C 268.836 12.400,268.400 12.169,268.400 11.869 C 268.400 11.507,268.019 11.394,267.200 11.515 C 266.341 11.641,266.000 11.527,266.000 11.115 C 266.000 10.696,265.655 10.589,264.736 10.724 C 263.761 10.867,263.522 10.780,263.691 10.340 C 263.860 9.900,263.602 9.807,262.555 9.929 C 261.734 10.025,261.200 9.913,261.200 9.644 C 261.200 9.400,260.761 9.200,260.224 9.200 C 259.687 9.200,259.136 9.020,259.000 8.800 C 258.864 8.580,258.313 8.400,257.776 8.400 C 257.239 8.400,256.800 8.220,256.800 8.000 C 256.800 7.780,256.170 7.600,255.400 7.600 C 254.630 7.600,254.000 7.420,254.000 7.200 C 254.000 6.980,253.370 6.800,252.600 6.800 C 251.830 6.800,251.200 6.620,251.200 6.400 C 251.200 6.180,250.480 6.000,249.600 6.000 C 248.720 6.000,248.000 5.820,248.000 5.600 C 248.000 5.380,247.280 5.200,246.400 5.200 C 245.520 5.200,244.800 5.020,244.800 4.800 C 244.800 4.580,243.990 4.400,243.000 4.400 C 242.010 4.400,241.200 4.217,241.200 3.993 C 241.200 3.760,240.326 3.616,239.164 3.657 C 237.986 3.699,237.007 3.536,236.843 3.270 C 236.681 3.007,235.745 2.846,234.658 2.893 C 233.430 2.947,232.639 2.787,232.427 2.444 C 232.185 2.052,231.571 1.984,230.107 2.185 C 228.512 2.405,227.981 2.324,227.434 1.777 C 226.893 1.236,226.325 1.145,224.676 1.338 C 222.527 1.589,220.674 1.327,220.990 0.817 C 221.417 0.125,190.584 -0.278,187.200 0.376 M125.396 93.594 C 125.688 94.066,126.043 96.044,127.586 105.800 C 127.829 107.340,128.202 109.635,128.414 110.900 C 128.944 114.060,129.531 117.706,130.008 120.800 C 130.229 122.230,130.581 124.390,130.790 125.600 C 131.000 126.810,131.294 128.663,131.444 129.717 C 131.693 131.472,131.871 131.723,133.558 132.687 C 135.524 133.810,140.792 137.920,140.811 138.345 C 140.818 138.485,141.532 139.398,142.400 140.372 C 144.260 142.463,146.304 146.227,147.846 150.400 L 148.954 153.400 149.094 205.500 L 149.233 257.600 158.817 257.600 L 168.400 257.600 168.400 208.664 C 168.400 151.042,168.320 152.206,172.853 144.036 C 174.593 140.901,180.391 134.719,182.622 133.620 C 185.387 132.259,186.400 131.223,186.400 129.757 C 186.400 128.985,186.564 127.600,186.764 126.677 C 187.160 124.849,187.379 123.550,189.200 112.200 C 189.871 108.020,190.827 102.080,191.324 99.000 L 192.227 93.400 199.614 93.400 L 207.000 93.400 208.835 104.600 C 209.844 110.760,211.180 119.040,211.803 123.000 C 213.181 131.748,213.190 131.775,215.112 132.755 C 216.941 133.688,221.066 136.941,222.200 138.345 C 222.640 138.890,223.467 139.890,224.037 140.568 C 226.524 143.524,228.627 147.930,230.065 153.200 C 230.436 154.559,230.611 167.553,230.778 206.200 L 231.000 257.400 240.400 257.400 L 249.800 257.400 250.016 206.000 C 250.185 165.806,250.344 154.251,250.744 153.000 C 252.126 148.685,252.998 146.499,254.050 144.716 C 254.682 143.643,255.204 142.638,255.209 142.482 C 255.219 142.191,257.035 140.065,259.391 137.587 C 260.673 136.238,263.382 134.179,266.395 132.262 C 267.406 131.619,267.859 130.992,268.038 129.987 C 268.704 126.258,270.510 115.270,271.783 107.200 C 272.564 102.250,273.407 97.165,273.656 95.900 L 274.109 93.600 281.041 93.600 C 288.928 93.600,288.500 93.405,288.955 97.200 C 289.101 98.410,289.395 100.390,289.609 101.600 C 289.823 102.810,290.171 104.970,290.381 106.400 C 290.591 107.830,290.931 109.990,291.135 111.200 C 291.339 112.410,291.973 116.370,292.543 120.000 C 294.479 132.323,294.024 131.107,297.542 133.365 C 301.109 135.656,305.493 139.963,307.170 142.827 C 308.830 145.660,309.923 148.086,310.673 150.600 C 311.621 153.778,312.628 160.907,312.222 161.564 C 312.032 161.871,304.450 162.000,286.590 162.000 C 261.925 162.000,261.217 162.021,260.814 162.774 C 260.366 163.611,260.198 255.808,260.643 256.967 C 260.862 257.537,264.283 257.600,295.243 257.600 L 329.600 257.600 329.600 286.341 L 329.600 315.082 328.685 316.441 C 328.116 317.286,327.195 317.990,326.246 318.302 C 323.750 319.125,73.345 318.827,72.089 318.000 C 69.530 316.315,69.584 317.034,69.697 285.968 L 69.800 257.800 78.300 257.692 L 86.800 257.584 86.800 208.913 C 86.800 176.369,86.943 159.108,87.233 156.821 C 88.569 146.262,93.479 138.551,102.600 132.686 C 104.012 131.778,104.631 131.106,104.704 130.400 C 104.762 129.850,104.987 128.365,105.204 127.100 C 105.895 123.087,106.356 120.282,106.800 117.400 C 107.037 115.860,107.404 113.565,107.616 112.300 C 107.827 111.035,108.173 108.965,108.384 107.700 C 108.596 106.435,108.963 104.140,109.200 102.600 C 109.654 99.654,110.336 95.618,110.637 94.100 C 110.832 93.117,124.805 92.638,125.396 93.594 " stroke="none" fill="#fb846c" fill-rule="evenodd"></path><path id="path2" d="M110.639 94.091 C 110.338 95.605,109.657 99.635,109.200 102.600 C 108.963 104.140,108.596 106.435,108.384 107.700 C 108.173 108.965,107.827 111.035,107.616 112.300 C 107.404 113.565,107.035 115.860,106.795 117.400 C 105.852 123.458,105.513 125.466,105.164 127.077 C 104.964 128.000,104.800 129.313,104.800 129.996 C 104.800 131.329,103.725 132.594,101.734 133.603 C 100.701 134.127,98.859 135.560,96.508 137.668 C 93.462 140.401,89.804 146.741,88.324 151.856 L 87.415 155.000 87.294 206.100 L 87.174 257.200 91.537 257.200 C 93.937 257.200,96.417 257.304,97.050 257.430 L 98.200 257.660 98.097 210.230 L 97.994 162.800 123.589 162.800 L 149.185 162.800 149.006 161.100 C 148.908 160.165,148.735 158.050,148.622 156.400 C 147.996 147.217,141.101 136.628,133.356 132.952 C 132.582 132.585,131.919 131.936,131.825 131.452 C 131.733 130.984,131.457 129.430,131.211 128.000 C 130.965 126.570,130.601 124.500,130.403 123.400 C 130.205 122.300,129.849 120.050,129.611 118.400 C 129.373 116.750,129.003 114.365,128.789 113.100 C 127.983 108.339,127.619 106.119,127.195 103.400 C 126.332 97.857,125.899 95.383,125.619 94.400 L 125.334 93.400 118.077 93.291 L 110.820 93.182 110.639 94.091 M195.800 128.457 C 191.998 128.941,187.000 130.561,185.552 131.779 C 184.897 132.330,183.714 133.088,182.922 133.464 C 180.510 134.608,174.698 140.711,172.853 144.036 C 168.320 152.206,168.400 151.042,168.400 208.664 L 168.400 257.600 173.798 257.600 L 179.197 257.600 179.298 210.100 L 179.400 162.600 205.100 162.497 L 230.800 162.394 230.800 160.887 C 230.800 153.583,228.060 145.350,224.037 140.568 C 223.467 139.890,222.640 138.890,222.200 138.345 C 221.065 136.940,216.940 133.688,215.109 132.754 C 214.257 132.319,213.401 131.567,213.206 131.082 C 213.010 130.597,212.839 130.447,212.825 130.749 C 212.808 131.125,212.642 131.177,212.300 130.915 C 210.950 129.882,201.202 127.780,199.010 128.051 C 198.785 128.078,197.340 128.261,195.800 128.457 M165.000 274.800 C 164.864 275.020,164.410 275.200,163.992 275.200 C 163.573 275.200,162.504 275.934,161.615 276.832 C 158.483 279.996,160.220 286.800,164.161 286.800 C 164.706 286.800,165.264 286.980,165.400 287.200 C 165.562 287.462,177.396 287.600,199.600 287.600 C 221.804 287.600,233.638 287.462,233.800 287.200 C 233.936 286.980,234.501 286.800,235.055 286.800 C 238.555 286.800,240.692 280.632,238.285 277.476 C 235.811 274.232,237.937 274.400,199.428 274.400 C 177.072 274.400,165.162 274.538,165.000 274.800 " stroke="none" fill="#60d0d5" fill-rule="evenodd"></path><path id="path3" d="M192.544 93.690 C 192.378 93.959,192.090 95.174,191.906 96.390 C 191.062 101.936,190.808 103.565,190.418 105.900 C 190.188 107.275,189.812 109.525,189.582 110.900 C 189.353 112.275,188.978 114.570,188.751 116.000 C 188.523 117.430,188.185 119.500,188.000 120.600 C 187.494 123.612,186.761 128.031,186.518 129.542 C 186.275 131.053,185.829 131.050,190.600 129.569 C 197.160 127.532,208.826 128.256,212.300 130.915 C 212.924 131.392,212.971 129.970,212.415 127.506 C 212.203 126.568,211.831 124.450,211.590 122.800 C 211.119 119.588,210.639 116.591,210.005 112.900 C 209.787 111.635,209.053 107.090,208.374 102.800 C 206.668 92.035,207.728 93.200,199.632 93.200 C 194.711 93.200,192.764 93.335,192.544 93.690 M98.098 210.100 L 98.200 257.400 122.800 257.510 C 136.330 257.571,147.805 257.523,148.300 257.403 L 149.200 257.185 149.200 209.992 L 149.200 162.800 123.598 162.800 L 97.997 162.800 98.098 210.100 " stroke="none" fill="#344c5c" fill-rule="evenodd"></path><path id="path4" d="M273.656 95.900 C 273.407 97.165,272.564 102.250,271.783 107.200 C 270.510 115.270,268.704 126.258,268.038 129.987 C 267.859 130.992,267.406 131.619,266.395 132.262 C 263.382 134.179,260.673 136.238,259.391 137.587 C 257.035 140.065,255.219 142.191,255.209 142.482 C 255.204 142.638,254.682 143.643,254.050 144.716 C 252.998 146.500,252.120 148.700,250.745 153.000 C 250.345 154.250,250.186 165.865,250.017 206.100 L 249.800 257.600 255.200 257.600 L 260.600 257.600 260.495 210.583 C 260.423 178.391,260.522 163.319,260.809 162.783 C 261.218 162.018,261.823 162.000,286.590 162.000 C 304.450 162.000,312.032 161.871,312.222 161.564 C 312.628 160.907,311.621 153.778,310.673 150.600 C 309.923 148.086,308.830 145.660,307.170 142.827 C 305.493 139.963,301.109 135.656,297.542 133.365 C 294.024 131.107,294.479 132.323,292.543 120.000 C 291.973 116.370,291.339 112.410,291.135 111.200 C 290.931 109.990,290.591 107.830,290.381 106.400 C 290.171 104.970,289.823 102.810,289.609 101.600 C 289.395 100.390,289.101 98.410,288.955 97.200 C 288.500 93.405,288.928 93.600,281.041 93.600 L 274.109 93.600 273.656 95.900 M399.293 185.200 C 399.293 185.970,399.375 186.285,399.476 185.900 C 399.576 185.515,399.576 184.885,399.476 184.500 C 399.375 184.115,399.293 184.430,399.293 185.200 " stroke="none" fill="#fbd35c" fill-rule="evenodd"></path></g></svg>